<svg width="41" height="41" viewBox="0 0 41 41" fill="none" xmlns="http://www.w3.org/2000/svg">
<path d="M20.4999 37.1667C29.7047 37.1667 37.1666 29.7047 37.1666 20.5C37.1666 11.2953 29.7047 3.83334 20.4999 3.83334C11.2952 3.83334 3.83325 11.2953 3.83325 20.5C3.83325 29.7047 11.2952 37.1667 20.4999 37.1667Z" stroke="black" stroke-width="2" stroke-linecap="round" stroke-linejoin="round"/>
<path d="M30.5 22.1667C30.1023 24.5207 28.8756 26.6548 27.0415 28.1832C25.2075 29.7116 22.8872 30.5333 20.5 30.5C18.1128 30.5333 15.7925 29.7116 13.9585 28.1832C12.1244 26.6548 10.8977 24.5207 10.5 22.1667H30.5Z" stroke="black" stroke-width="2" stroke-linecap="round" stroke-linejoin="round"/>
<path d="M15.5 15.5H15.5167" stroke="black" stroke-width="2" stroke-linecap="round" stroke-linejoin="round"/>
<path d="M25.5 15.5H25.5167" stroke="black" stroke-width="2" stroke-linecap="round" stroke-linejoin="round"/>
</svg>
